<?xml version="1.0" encoding="UTF-8"?>
<svg id="Capa_1" data-name="Capa 1" xmlns="http://www.w3.org/2000/svg" viewBox="0 0 144 144">
  <defs>
    <style>
      .cls-1 {
        fill: #1a191d;
      }

      .cls-2 {
        fill: #cf63fc;
      }
    </style>
  </defs>
  <rect class="cls-1" x=".5" y=".5" width="143" height="143" rx="19.69" ry="19.69"/>
  <g>
    <path class="cls-2" d="m64.17,86.15v24.75H9.68V33.21h21.09v75.03c10.32-1.55,19.87-7.99,22.75-22.09h10.66Z"/>
    <path class="cls-2" d="m134.32,92.26l-3.22,5.11c-6.55,9.43-16.65,15.21-28.52,15.21-20.53,0-35.96-17.43-35.96-40.62s15.43-40.51,35.96-40.51c12.32,0,22.86,6.33,29.3,16.43v16.87h-18.31c0-.11-.11-.11-.11-.22-10.88-15.54-26.97-25.42-33.08-21.2-5.99,4.22-2.22,22.75,8.66,38.29,7.21,10.43,16.87,18.31,24.2,21.09v-23.42h-18.2v-2.22h39.29v15.21Z"/>
  </g>
</svg>